# xmcd
#
# Track frame offsets:
#	150
#	19273
#	34173
#	51489
#	71297
#	85814
#	103321
#	118568
#	133776
#	149134
#	164170
#	178392
#	198498
#	216647
#	234988
#	255820
#	275737
#	290766
#	304782
#	320751
#	340662
#
# Disc length: 4763 seconds
#
# Revision: 1
# Processed by: cddbd v1.5.2PL0 Copyright (c) Steve Scherf et al.
# Submitted via: audiograbber 1.83.01
#
DISCID=59129915
DTITLE=Legende - Antologija
DYEAR=2005
DGENRE=Ballad
TTITLE0=Ne Veruj
TTITLE1=Zbog Tebe
TTITLE2=Uspomene
TTITLE3=Cetrdesete
TTITLE4=Ne Pitaj
TTITLE5=Ej, Da Mi Je
TTITLE6=Moja Si
TTITLE7=Pijem Zbog Tebe
TTITLE8=Sat Otkucava
TTITLE9=Na Krilima
TTITLE10=Molitva
TTITLE11=Zasto NeVolim Prolece
TTITLE12=A Sada Znam
TTITLE13=Dugo
TTITLE14=Secanje
TTITLE15=Zaboravi
TTITLE16=Tocak Zivota
TTITLE17=Noc O Kojoj Snivas
TTITLE18=Pogledaj Me Nevernice
TTITLE19=Strah Me
TTITLE20=Jos Samo Noc Da Pobedi
EXTD=
EXTT0=
EXTT1=
EXTT2=
EXTT3=
EXTT4=
EXTT5=
EXTT6=
EXTT7=
EXTT8=
EXTT9=
EXTT10=
EXTT11=
EXTT12=
EXTT13=
EXTT14=
EXTT15=
EXTT16=
EXTT17=
EXTT18=
EXTT19=
EXTT20=
PLAYORDER=
